<?xml version="1.0" standalone="no"?>
<!DOCTYPE svg PUBLIC "-//W3C//DTD SVG 1.1//EN" "http://www.w3.org/Graphics/SVG/1.1/DTD/svg11.dtd" >
<svg xmlns="http://www.w3.org/2000/svg">
<metadata>Generated by IcoMoon</metadata>
<defs>
<font id="maminzam-font" horiz-adv-x="1024">
<font-face units-per-em="1024" ascent="960" descent="-64" />
<missing-glyph horiz-adv-x="1024" />
<glyph unicode="&#x20;" horiz-adv-x="512" d="" />
<glyph unicode="&#xe900;" glyph-name="arrow-point-to-right" d="M782.857 397.307l-440.304-440.29c-28.009-28.022-73.42-28.022-101.415 0-27.997 27.997-27.997 73.406 0 101.401l389.601 389.589-389.589 389.576c-27.997 28.009-27.997 73.413 0 101.41 27.997 28.009 73.406 28.009 101.415 0l440.304-440.297c13.999-14.005 20.99-32.342 20.99-50.687 0-18.354-7.005-36.704-21.001-50.703z" />
<glyph unicode="&#xe901;" glyph-name="avatar" d="M508.289 408.24c1.060 0 2.121 0 3.393 0 0.424 0 0.848 0 1.272 0 0.636 0 1.484 0 2.121 0 62.131 1.060 112.388 22.902 149.497 64.676 81.64 92.031 68.069 249.797 66.584 264.853-5.301 113.024-58.738 167.097-102.845 192.331-32.868 18.873-71.25 29.051-114.084 29.899h-1.484c-0.212 0-0.636 0-0.848 0h-1.272c-23.538 0-69.765-3.817-114.084-29.051-44.531-25.234-98.816-79.308-104.118-193.18-1.484-15.056-15.056-172.823 66.584-264.853 36.897-41.774 87.153-63.616 149.285-64.676zM349.038 732.468c0 0.636 0.212 1.272 0.212 1.696 6.998 152.041 114.932 168.369 161.16 168.369h0.848c0.424 0 1.060 0 1.696 0 57.254-1.272 154.586-24.598 161.16-168.369 0-0.636 0-1.272 0.212-1.696 0.212-1.484 15.056-145.68-52.377-221.595-26.719-30.111-62.343-44.955-109.207-45.379-0.424 0-0.636 0-1.060 0v0c-0.424 0-0.636 0-1.060 0-46.651 0.424-82.488 15.268-108.995 45.379-67.221 75.491-52.801 220.322-52.589 221.595zM947.449 146.568c0 0.212 0 0.424 0 0.636 0 1.696-0.212 3.393-0.212 5.301-1.272 41.986-4.029 140.166-96.060 171.55-0.636 0.212-1.484 0.424-2.121 0.636-95.636 24.386-175.155 79.52-176.003 80.156-12.935 9.118-30.748 5.937-39.866-6.998s-5.937-30.748 6.998-39.866c3.605-2.545 88.002-61.283 193.604-88.426 49.408-17.6 54.922-70.401 56.406-118.749 0-1.908 0-3.605 0.212-5.301 0.212-19.085-1.060-48.56-4.453-65.524-34.352-19.509-169.006-86.941-373.848-86.941-203.994 0-339.496 67.645-374.060 87.153-3.393 16.964-4.877 46.439-4.453 65.524 0 1.696 0.212 3.393 0.212 5.301 1.484 48.348 6.998 101.149 56.406 118.749 105.602 27.143 189.999 86.093 193.604 88.426 12.935 9.118 16.116 26.931 6.998 39.866s-26.931 16.116-39.866 6.998c-0.848-0.636-79.944-55.77-176.003-80.156-0.848-0.212-1.484-0.424-2.121-0.636-92.031-31.596-94.787-129.776-96.060-171.55 0-1.908 0-3.605-0.212-5.301 0-0.212 0-0.424 0-0.636-0.212-11.027-0.424-67.645 10.815-96.060 2.121-5.513 5.937-10.179 11.027-13.359 6.362-4.241 158.827-101.361 413.926-101.361s407.564 97.332 413.926 101.361c4.877 3.181 8.906 7.846 11.027 13.359 10.603 28.203 10.391 84.821 10.179 95.848z" />
<glyph unicode="&#xe902;" glyph-name="cancel-music" d="M633.703 448l365.094 365.094c33.607 33.607 33.607 88.095 0 121.698-33.607 33.607-88.091 33.607-121.698 0l-365.099-365.099-365.099 365.104c-33.607 33.607-88.091 33.607-121.698 0-33.603-33.607-33.603-88.095 0-121.698l365.099-365.094-365.099-365.099c-33.603-33.607-33.603-88.095 0-121.698 33.607-33.607 88.091-33.607 121.698 0l365.099 365.099 365.099-365.099c33.603-33.607 88.091-33.607 121.698 0s33.607 88.091 0 121.698l-365.094 365.094z" />
<glyph unicode="&#xe903;" glyph-name="clock-circular-outline" d="M512 960c-282.317 0-512-229.683-512-512s229.683-512 512-512 512 229.683 512 512-229.683 512-512 512zM512 44.945c-222.243 0-403.066 180.802-403.066 403.055s180.823 403.055 403.066 403.055 403.066-180.802 403.066-403.055-180.823-403.055-403.066-403.055zM778.834 463.809h-230.094v276.657c0 23.281-18.876 42.157-42.157 42.157s-42.157-18.876-42.157-42.157v-318.814c0-23.281 18.876-42.157 42.157-42.157h272.252c23.281 0 42.157 18.876 42.157 42.157s-18.876 42.157-42.157 42.157z" />
<glyph unicode="&#xe904;" glyph-name="communication" d="M0 467.025c0-85.298 31.569-168.924 89.48-237.080-11.917-25.297-29.060-45.367-51.012-59.584-13.171-8.572-19.443-24.252-16.098-39.513 3.345-15.053 15.68-26.342 30.942-28.433 34.914-4.808 100.978-7.526 164.534 25.297 69.2-36.377 147.809-55.611 228.717-55.611 46.831 0 92.825 6.272 136.938 18.816 13.589 3.972 21.534 17.98 17.561 31.569-3.763 13.589-17.98 21.534-31.569 17.561-39.513-11.29-80.908-16.934-122.93-16.934-77.145 0-151.781 19.443-216.173 56.029-7.944 4.599-17.98 4.39-25.924-0.209-37.423-22.37-77.354-28.224-108.714-28.224-0.209 0-0.418 0-0.418 0 20.697 20.279 36.795 45.576 47.667 75.263 3.345 8.99 1.254 19.234-5.227 26.342-56.866 61.674-86.762 135.892-86.762 214.71 0 189.622 177.496 343.703 395.76 343.703 202.375 0 371.508-131.711 393.251-306.28 1.673-14.007 14.425-24.042 28.642-22.161 14.007 1.673 24.042 14.635 22.161 28.642-24.879 200.075-215.755 351.020-444.054 351.020-246.278 0-446.772-177.287-446.772-394.924zM474.996 467.025c0-15.703-12.73-28.433-28.433-28.433s-28.433 12.73-28.433 28.433c0 15.703 12.73 28.433 28.433 28.433s28.433-12.73 28.433-28.433zM352.693 467.025c0-15.703-12.73-28.433-28.433-28.433s-28.433 12.73-28.433 28.433c0 15.703 12.73 28.433 28.433 28.433s28.433-12.73 28.433-28.433zM597.508 467.025c0-15.703-12.73-28.433-28.433-28.433s-28.433 12.73-28.433 28.433c0 15.703 12.73 28.433 28.433 28.433s28.433-12.73 28.433-28.433zM811.799 458.662c-117.076 0-212.201-95.125-212.201-212.201s95.125-212.41 212.201-212.41 212.201 95.125 212.201 212.201-95.125 212.41-212.201 212.41zM811.799 85.272c-88.853 0-160.98 72.336-160.98 160.98s72.336 160.98 160.98 160.98 160.98-72.336 160.98-160.98-72.127-160.98-160.98-160.98zM849.64 303.745l-60.629-60.211-14.844 14.844c-10.035 10.035-26.133 10.035-36.168 0s-10.035-26.133 0-36.168l32.823-33.032c4.808-4.808 11.29-7.526 18.189-7.526v0c6.69 0 13.171 2.718 17.98 7.526l78.817 78.19c10.035 10.035 10.035 26.133 0 36.168s-26.133 10.035-36.168 0.209z" />
<glyph unicode="&#xe905;" glyph-name="copy" d="M659.005 780.91h-476.035c-44.668 0-80.947-36.279-80.947-80.947v-683.016c0-44.668 36.279-80.947 80.947-80.947h476.035c44.668 0 80.947 36.279 80.947 80.947v683.016c-0.21 44.668-36.489 80.947-80.947 80.947zM683.121 17.157c0-13.421-10.905-24.326-24.326-24.326h-476.035c-13.421 0-24.326 10.905-24.326 24.326v682.806c0 13.421 10.905 24.326 24.326 24.326h476.035c13.421 0 24.326-10.905 24.326-24.326v-682.806zM841.031 960h-476.035c-44.668 0-80.947-36.279-80.947-80.947 0-15.728 12.582-28.31 28.31-28.31s28.31 12.582 28.31 28.31c0 13.421 10.905 24.326 24.326 24.326h476.035c13.421 0 24.326-10.905 24.326-24.326v-683.016c0-13.421-10.905-24.326-24.326-24.326-15.728 0-28.31-12.582-28.31-28.31s12.582-28.31 28.31-28.31c44.668 0 80.947 36.279 80.947 80.947v683.016c0 44.668-36.279 80.947-80.947 80.947z" />
<glyph unicode="&#xe906;" glyph-name="envelope" d="M898.993 837.641h-773.774c-69.072 0-125.219-56.147-125.219-125.219v-528.844c0-69.072 56.147-125.219 125.219-125.219h773.562c69.072 0 125.219 56.147 125.219 125.219v528.632c0.212 69.072-55.935 125.431-125.007 125.431zM967.005 183.578c0-37.502-30.51-68.012-68.012-68.012h-773.774c-37.502 0-68.012 30.51-68.012 68.012v528.632c0 37.502 30.51 68.012 68.012 68.012h773.562c37.502 0 68.012-30.51 68.012-68.012v-528.632h0.212zM645.8 454.568l250.438 224.589c11.653 10.594 12.713 28.603 2.119 40.468-10.594 11.653-28.603 12.713-40.468 2.119l-345.359-309.976-67.377 60.173c-0.212 0.212-0.424 0.424-0.424 0.636-1.483 1.483-2.966 2.754-4.661 4.026l-274.168 245.353c-11.865 10.594-29.875 9.534-40.468-2.331s-9.534-29.875 2.331-40.468l253.405-226.496-252.345-236.242c-11.441-10.806-12.077-28.815-1.271-40.468 5.721-5.933 13.348-9.111 20.976-9.111 6.992 0 13.984 2.543 19.493 7.628l256.159 239.633 69.496-62.080c5.509-4.873 12.289-7.204 19.069-7.204s13.772 2.543 19.069 7.416l71.402 63.987 254.676-241.963c5.509-5.297 12.713-7.839 19.705-7.839 7.628 0 15.043 2.966 20.764 8.899 10.806 11.441 10.382 29.663-1.059 40.468l-251.498 238.785z" />
<glyph unicode="&#xe907;" glyph-name="facebook" d="M269.883 414.618h112.247v-462.101c0-9.124 7.393-16.516 16.516-16.516h190.319c9.124 0 16.516 7.393 16.516 16.516v459.925h129.037c8.39 0 15.449 6.296 16.407 14.63l19.598 170.123c0.538 4.681-0.945 9.368-4.076 12.879-3.135 3.515-7.621 5.526-12.328 5.526h-148.632v106.641c0 32.147 17.309 48.448 51.451 48.448 4.866 0 97.181 0 97.181 0 9.124 0 16.516 7.396 16.516 16.516v156.157c0 9.124-7.393 16.516-16.516 16.516h-133.929c-0.945 0.046-3.042 0.122-6.134 0.122-23.238 0-104.012-4.562-167.817-63.26-70.696-65.047-60.869-142.931-58.52-156.434v-124.703h-117.836c-9.124 0-16.516-7.393-16.516-16.516v-167.949c0-9.124 7.393-16.519 16.516-16.519z" />
<glyph unicode="&#xe908;" glyph-name="folder" d="M859.505 751.774h-242.594c-58.946 0-107.039 47.88-107.039 107.039 0 15.96-12.768 28.728-28.728 28.728h-316.648c-90.653 0-164.495-73.842-164.495-164.495v-550.091c0-90.653 73.842-164.495 164.495-164.495h695.009c90.653 0 164.495 73.842 164.495 164.495v414.537c0 90.653-73.842 164.283-164.495 164.283zM966.544 173.167c0-58.946-47.88-107.039-107.039-107.039h-695.009c-58.946 0-107.039 47.88-107.039 107.039v549.879c0 58.946 47.88 107.039 107.039 107.039h290.474c13.619-77.034 81.077-135.767 161.942-135.767h242.594c58.946 0 107.039-47.88 107.039-107.039v-414.111z" />
<glyph unicode="&#xe909;" glyph-name="heart" d="M941.29 814.55c-53.62 53.62-124.608 82.927-200.371 82.927s-146.968-29.524-200.588-83.144l-28.004-28.004-28.438 28.438c-53.62 53.62-125.042 83.361-200.805 83.361-75.546 0-146.751-29.524-200.154-82.927-53.62-53.62-83.144-124.825-82.927-200.588 0-75.763 29.741-146.751 83.361-200.371l407.689-407.689c5.644-5.644 13.242-8.683 20.623-8.683s14.979 2.822 20.623 8.466l408.557 407.038c53.62 53.62 83.144 124.825 83.144 200.588 0.217 75.763-29.090 146.968-82.71 200.588zM899.609 454.837l-387.934-386.414-387.066 387.066c-42.549 42.549-65.994 98.992-65.994 159.125s23.228 116.576 65.777 158.907c42.332 42.332 98.774 65.777 158.69 65.777 60.133 0 116.793-23.445 159.342-65.994l49.062-49.062c11.506-11.506 29.958-11.506 41.464 0l48.627 48.627c42.549 42.549 99.209 65.994 159.125 65.994s116.358-23.445 158.907-65.777c42.549-42.549 65.777-98.992 65.777-159.125 0.217-60.133-23.228-116.576-65.777-159.125z" />
<glyph unicode="&#xe90a;" glyph-name="levels" d="M35.944 412.264h457.665c16.091-66.247 75.86-115.566 147.122-115.566s130.821 49.319 147.122 115.566h200.202c19.853 0 35.944 16.091 35.944 35.944s-16.091 35.736-35.944 35.736h-200.202c-16.091 66.247-75.86 115.566-147.122 115.566s-130.821-49.319-147.122-115.566h-457.665c-19.853 0-35.944-16.091-35.944-35.736 0.209-20.062 16.3-35.944 35.944-35.944zM640.731 527.621c43.886 0 79.621-35.736 79.621-79.621s-35.736-79.621-79.621-79.621-79.83 35.736-79.83 79.621 35.736 79.621 79.83 79.621zM35.944 64.731h219.638c16.091-66.247 75.86-115.566 147.122-115.566s130.821 49.319 147.122 115.566h438.23c19.853 0 35.944 16.091 35.944 35.736 0 19.853-16.091 35.944-35.944 35.944h-438.23c-16.091 66.247-75.86 115.566-147.122 115.566s-130.821-49.319-147.122-115.566h-219.638c-19.853 0-35.944-16.091-35.944-35.944 0.209-19.644 16.3-35.736 35.944-35.736zM402.704 180.297c43.886 0 79.621-35.736 79.621-79.621s-35.736-79.621-79.621-79.621c-43.259 0-78.576 34.691-79.621 77.949 0 0.627 0 1.254 0 1.881s0 1.254 0 1.881c1.045 42.841 36.362 77.531 79.621 77.531zM35.944 759.589h219.638c16.091-66.247 75.86-115.566 147.122-115.566s130.821 49.319 147.122 115.566h438.23c19.853 0 35.944 16.091 35.944 35.944s-16.091 35.736-35.944 35.736h-438.23c-16.091 66.247-75.86 115.566-147.122 115.566s-130.821-49.319-147.122-115.566h-219.638c-19.853 0-35.944-16.091-35.944-35.736 0.209-19.853 16.3-35.944 35.944-35.944zM402.704 875.154c43.886 0 79.621-35.736 79.621-79.621s-35.736-79.621-79.621-79.621c-43.259 0-78.576 34.691-79.621 77.949 0 0.627 0 1.254 0 1.881s0 1.254 0 1.881c1.045 42.632 36.362 77.531 79.621 77.531z" />
<glyph unicode="&#xe90b;" glyph-name="list" d="M182.648 676.624c78.158 0 141.688 63.53 141.688 141.688s-63.53 141.688-141.688 141.688-141.688-63.53-141.688-141.688c0.209-78.158 63.739-141.688 141.688-141.688zM182.648 888.32c38.661 0 70.008-31.347 70.008-70.008s-31.347-70.008-70.008-70.008c-38.452 0-69.799 31.347-69.799 70.008s31.347 70.008 69.799 70.008zM182.648 306.312c78.158 0 141.688 63.53 141.688 141.688s-63.53 141.688-141.688 141.688-141.688-63.53-141.688-141.688c0.209-78.158 63.739-141.688 141.688-141.688zM182.648 518.008c38.661 0 70.008-31.347 70.008-70.008s-31.347-70.008-70.008-70.008c-38.452 0-69.799 31.347-69.799 70.008s31.347 70.008 69.799 70.008zM182.648-64c78.158 0 141.688 63.53 141.688 141.688s-63.53 141.688-141.688 141.688-141.688-63.53-141.688-141.688c0.209-78.158 63.739-141.688 141.688-141.688zM182.648 147.696c38.661 0 70.008-31.347 70.008-70.008s-31.347-70.008-70.008-70.008-70.008 31.347-70.008 70.008c0.209 38.661 31.556 70.008 70.008 70.008zM407.51 824.999c0-19.853 16.091-35.944 35.944-35.944h503.641c19.853 0 35.944 16.091 35.944 35.944s-16.091 35.944-35.944 35.944h-503.641c-19.853 0-35.944-16.091-35.944-35.944zM436.558 412.264h503.641c19.853 0 35.944 16.091 35.944 35.736 0 19.853-16.091 35.944-35.944 35.944h-503.641c-19.853 0-35.736-16.091-35.736-35.944s15.882-35.736 35.736-35.736zM436.558 41.744h503.641c19.853 0 35.944 16.091 35.944 35.736s-16.091 35.944-35.944 35.944h-503.641c-19.853 0-35.736-16.091-35.736-35.944s15.882-35.736 35.736-35.736z" />
<glyph unicode="&#xe90c;" glyph-name="list2" d="M168.392 828.352c-10.078 10.078-26.246 10.078-36.324 0.21-10.288-10.078-10.288-26.246-0.21-36.324l61.31-61.73c4.829-4.829 11.338-7.559 18.267-7.559v0c6.719 0 13.228 2.73 18.057 7.559l186.659 185.609c10.078 10.078 10.078 26.246 0.21 36.324-10.078 10.078-26.246 10.078-36.324 0l-56.481-56.061c-30.025 31.075-71.808 48.922-115.691 48.922-88.815 0-161.043-72.228-161.043-161.043s72.228-161.043 161.043-161.043c71.598 0 133.538 45.982 154.324 114.431 4.199 13.648-3.569 27.925-17.217 32.125-13.648 3.989-27.925-3.569-32.125-17.217-13.858-45.772-57.111-77.897-104.983-77.897-60.47 0-109.602 49.132-109.602 109.602s49.132 109.602 109.602 109.602c30.025 0 58.58-12.598 79.157-34.014l-75.377-74.958-43.253 43.463zM207.865 601.799c-88.815 0-161.043-72.228-161.043-161.043s72.228-161.043 161.043-161.043 161.043 72.228 161.043 161.043-72.228 161.043-161.043 161.043zM207.865 331.154c-60.47 0-109.602 49.132-109.602 109.602s49.132 109.602 109.602 109.602 109.602-49.132 109.602-109.602-49.132-109.602-109.602-109.602zM368.909 97.043c0 88.815-72.228 161.043-161.043 161.043s-161.043-72.228-161.043-161.043 72.228-161.043 161.043-161.043 161.043 72.228 161.043 161.043zM207.865-12.769c-60.47 0-109.602 49.132-109.602 109.602s49.132 109.602 109.602 109.602 109.602-49.132 109.602-109.602-49.132-109.602-109.602-109.602zM951.352 466.582h-500.347c-14.278 0-25.826-11.548-25.826-25.826s11.548-25.826 25.826-25.826h500.347c14.278 0 25.826 11.548 25.826 25.826s-11.548 25.826-25.826 25.826zM951.352 809.875h-500.347c-14.278 0-25.826-11.548-25.826-25.826s11.548-25.826 25.826-25.826h500.347c14.278 0 25.826 11.548 25.826 25.826s-11.548 25.826-25.826 25.826zM951.352 122.659h-500.347c-14.278 0-25.826-11.548-25.826-25.826s11.548-25.826 25.826-25.826h500.347c14.278 0 25.826 11.548 25.826 25.826 0 14.488-11.548 25.826-25.826 25.826z" />
<glyph unicode="&#xe90d;" glyph-name="logout" d="M978.851 425.321c0.209 0.209 0.209 0.209 0.418 0.418 0.627 0.836 1.254 1.463 1.672 2.299 0.209 0.209 0.209 0.418 0.418 0.627 0.418 0.836 1.045 1.672 1.463 2.508 0 0.209 0.209 0.418 0.209 0.418 0.418 0.836 0.836 1.672 1.254 2.717 0 0.209 0 0.209 0.209 0.418 0.418 0.836 0.627 1.881 1.045 2.926 0 0.209 0 0.418 0.209 0.418 0.209 1.045 0.627 1.881 0.627 2.926 0 0.418 0 0.627 0.209 1.045 0.209 0.836 0.209 1.672 0.418 2.508 0.209 1.254 0.209 2.299 0.209 3.553s0 2.299-0.209 3.553c0 0.836-0.209 1.672-0.418 2.508 0 0.418 0 0.627-0.209 1.045-0.209 1.045-0.418 1.881-0.627 2.926 0 0.209 0 0.418-0.209 0.418-0.209 1.045-0.627 1.881-1.045 2.926 0 0.209 0 0.209-0.209 0.418-0.418 0.836-0.836 1.881-1.254 2.717 0 0.209-0.209 0.418-0.209 0.418-0.418 0.836-0.836 1.672-1.463 2.508-0.209 0.209-0.209 0.418-0.418 0.627-0.627 0.836-1.045 1.672-1.672 2.299-0.209 0.209-0.209 0.209-0.418 0.418-0.836 0.836-1.463 1.881-2.508 2.717l-206.723 206.514c-14.004 14.004-36.788 14.004-50.792 0s-14.004-36.788 0-50.792l145.479-145.479h-578.365c-19.857 0-35.952-16.095-35.952-35.743 0-19.857 16.095-35.952 35.952-35.952h578.574l-144.434-144.434c-14.004-14.004-14.004-36.788 0-50.792 6.898-6.898 16.095-10.451 25.292-10.451s18.394 3.553 25.292 10.451l205.469 205.469c1.045 1.254 1.881 2.090 2.717 2.926zM231.388 888.305h267.548c19.857 0 35.952 16.095 35.952 35.743 0 19.857-16.095 35.952-35.952 35.952h-267.548c-107.228 0-194.6-87.371-194.6-194.6v-634.801c0-107.228 87.371-194.6 194.6-194.6h263.159c19.857 0 35.952 16.095 35.952 35.743 0 19.857-16.095 35.952-35.952 35.952h-263.159c-67.723 0-122.905 55.182-122.905 122.905v634.801c0.209 67.932 55.182 122.905 122.905 122.905z" />
<glyph unicode="&#xe90e;" glyph-name="logout1" d="M494.656-5.324h-267.083c-72.584 0-131.477 59.11-131.477 131.477v643.694c0 72.584 59.11 131.477 131.477 131.477h271.43c16.299 0 29.338 13.039 29.338 29.338s-13.039 29.338-29.338 29.338h-271.43c-104.964 0-190.153-85.406-190.153-190.153v-643.694c0-104.964 85.406-190.153 190.153-190.153h267.083c16.299 0 29.338 13.039 29.338 29.338s-13.256 29.338-29.338 29.338zM977.97 468.645l-186.458 186.458c-11.518 11.518-29.99 11.518-41.508 0s-11.518-29.99 0-41.508l136.475-136.475h-595.233c-16.299 0-29.338-13.039-29.338-29.338s13.039-29.338 29.338-29.338h595.233l-136.475-136.475c-11.518-11.518-11.518-29.99 0-41.508 5.65-5.65 13.256-8.693 20.645-8.693s14.995 2.825 20.645 8.693l186.458 186.458c11.735 11.735 11.735 30.424 0.217 41.725z" />
<glyph unicode="&#xe90f;" glyph-name="logout2" d="M0 707.185v-518.37c0-71.427 58.27-129.697 129.697-129.697h418.957c71.427 0 129.697 58.27 129.697 129.697v83.958c0 14.202-11.487 25.689-25.689 25.689s-25.689-11.487-25.689-25.689v-83.958c0-43.232-35.296-78.528-78.528-78.528h-418.748c-43.232 0-78.528 35.296-78.528 78.528v518.37c0 43.232 35.296 78.528 78.528 78.528h418.957c43.232 0 78.528-35.296 78.528-78.528v-83.958c0-14.202 11.487-25.689 25.689-25.689s25.689 11.487 25.689 25.689v83.958c0 71.427-58.27 129.697-129.697 129.697h-419.165c-71.427 0-129.697-58.061-129.697-129.697zM804.915 254.812c5.012-5.012 11.487-7.519 18.17-7.519s13.158 2.506 18.17 7.519l175.227 175.227c10.025 10.025 10.025 26.106 0 36.131l-175.227 175.227c-10.025 10.025-26.106 10.025-36.131 0s-10.025-26.106 0-36.131l131.577-131.577h-480.15c-14.202 0-25.689-11.487-25.689-25.689s11.487-25.689 25.689-25.689h479.941l-131.577-131.577c-10.025-9.816-10.025-26.106 0-35.922z" />
<glyph unicode="&#xe910;" glyph-name="minus-symbol" d="M967.112 504.888h-910.224c-31.403 0-56.888-25.485-56.888-56.888 0-31.288 25.485-56.888 56.888-56.888h910.224c31.288 0 56.888 25.6 56.888 56.888 0 31.403-25.6 56.888-56.888 56.888z" />
<glyph unicode="&#xe911;" glyph-name="odnoklassniki-logo" d="M461.6 238.725c-79.384 8.279-150.96 27.83-212.241 75.759-7.604 5.963-15.454 11.711-22.393 18.371-26.822 25.761-29.525 55.264-8.301 85.668 18.157 26.018 48.636 32.978 80.317 18.039 6.134-2.896 11.979-6.51 17.578-10.392 114.207-78.472 271.098-80.639 385.733-3.528 11.357 8.708 23.498 15.808 37.568 19.433 27.359 7.025 52.873-3.024 67.555-26.962 16.773-27.337 16.559-54.020-4.108-75.244-31.702-32.539-69.828-56.079-112.191-72.509-40.057-15.529-83.931-23.348-127.355-28.538 6.553-7.132 9.641-10.639 13.738-14.757 58.964-59.243 118.186-118.239 176.957-177.664 20.023-20.248 24.206-45.355 13.181-68.906-12.055-25.739-39.038-42.673-65.495-40.861-16.763 1.158-29.836 9.502-41.451 21.203-44.497 44.775-89.83 88.725-133.425 134.348-12.687 13.266-18.79 10.757-29.986-0.761-44.765-46.084-90.259-91.46-136.021-136.578-20.548-20.259-45.001-23.905-68.831-12.333-25.332 12.28-41.451 38.137-40.207 64.123 0.858 17.578 9.502 31.005 21.567 43.049 58.353 58.267 116.545 116.684 174.758 175.048 3.85 3.882 7.443 8.001 13.052 13.996zM509.957 441.689c-141.619 0.483-257.745 117.885-256.92 259.729 0.815 143.41 117.017 258.979 260.030 258.582 143.303-0.386 258.325-117.617 257.606-262.518-0.729-141.555-117.66-256.287-260.716-255.794zM638.663 701.075c-0.247 70.429-56.337 126.497-126.626 126.562-70.879 0.075-127.473-57.012-126.926-128.084 0.526-70.161 57.098-125.832 127.58-125.575 70.268 0.247 126.208 56.68 125.972 127.098z" />
<glyph unicode="&#xe912;" glyph-name="padlock" d="M839.795 513.75h-15.059v133.408c0 172.434-140.196 312.842-312.842 312.842-172.434 0-312.842-140.196-312.842-312.842 0-15.907 12.726-28.633 28.633-28.633s28.633 12.726 28.633 28.633c0 140.832 114.532 255.576 255.576 255.576 140.832 0 255.576-114.532 255.576-255.576v-133.408h-583.264c-30.542 0-55.357-24.815-55.357-55.357v-356.534c0-91.413 74.446-165.859 165.859-165.859h434.585c91.413 0 165.859 74.446 165.859 165.859v356.534c0 30.542-24.815 55.357-55.357 55.357zM837.886 101.859c0-59.811-48.57-108.593-108.593-108.593h-434.373c-59.811 0-108.593 48.57-108.593 108.593v354.625h651.559v-354.625zM512.106 113.524c59.175 0 107.109 48.146 107.109 107.109 0 59.175-48.146 107.109-107.109 107.109-59.175 0-107.109-48.146-107.109-107.109s47.934-107.109 107.109-107.109zM512.106 270.688c27.572 0 49.843-22.482 49.843-49.843s-22.27-50.055-49.843-50.055-49.843 22.482-49.843 49.843 22.27 50.055 49.843 50.055z" />
<glyph unicode="&#xe913;" glyph-name="previous" d="M512-64c282.331 0 512 229.669 512 512s-229.669 512-512 512-512-229.669-512-512 229.669-512 512-512zM512 888.32c242.834 0 440.32-197.486 440.32-440.32s-197.486-440.32-440.32-440.32-440.32 197.486-440.32 440.32 197.486 440.32 440.32 440.32zM542.929 272.039c6.896-6.896 16.091-10.449 25.287-10.449s18.39 3.553 25.287 10.449c14.002 14.002 14.002 36.78 0 50.782l-125.388 125.388 125.388 125.388c14.002 14.002 14.002 36.78 0 50.782s-36.78 14.002-50.782 0l-150.674-150.674c-6.687-6.687-10.449-15.882-10.449-25.287s3.762-18.599 10.449-25.287l150.883-151.092z" />
<glyph unicode="&#xe914;" glyph-name="printer" d="M847.32 750.107h-26.316v58.575c0 83.406-67.913 151.319-151.319 151.319h-317.705c-83.406 0-151.319-67.913-151.319-151.319v-58.575h-23.982c-83.406 0-151.319-67.913-151.319-151.319v-244.062c0-83.406 67.913-151.319 151.319-151.319h23.77v-191.854c0-41.597 33.956-75.553 75.553-75.553h469.236c41.597 0 75.553 33.956 75.553 75.553v191.854h26.528c83.406 0 151.319 67.913 151.319 151.319v244.062c0 83.406-67.913 151.319-151.319 151.319zM257.751 808.681c0 51.784 42.233 94.017 94.017 94.017h317.493c51.784 0 94.017-42.233 94.017-94.017v-58.575h-505.527v58.575zM763.49 11.129c0-9.975-8.277-18.252-18.252-18.252h-469.236c-9.975 0-18.252 8.277-18.252 18.252v316.432h505.739v-316.432zM941.337 354.514c0-51.784-42.233-94.017-94.017-94.017h-26.316v67.064h37.777c15.917 0 28.651 12.734 28.651 28.651s-12.734 28.651-28.651 28.651h-700.352c-15.917 0-28.651-12.734-28.651-28.651s12.734-28.651 28.651-28.651h42.233v-67.064h-23.982c-51.784 0-94.017 42.233-94.017 94.017v244.062c0 51.784 42.233 94.017 94.017 94.017h670.64c51.784 0 94.017-42.233 94.017-94.017v-244.062zM327.149 186.641h364.82c15.917 0 28.651 12.734 28.651 28.651s-12.734 28.651-28.651 28.651h-364.82c-15.917 0-28.651-12.734-28.651-28.651s12.946-28.651 28.651-28.651zM694.304 126.793h-365.032c-15.917 0-28.651-12.734-28.651-28.651s12.734-28.651 28.651-28.651h364.82c15.917 0 28.651 12.734 28.651 28.651s-12.734 28.651-28.439 28.651zM846.684 637.626h-58.15c-15.917 0-28.651-12.734-28.651-28.651s12.734-28.651 28.651-28.651h58.15c15.917 0 28.651 12.734 28.651 28.651s-12.734 28.651-28.651 28.651z" />
<glyph unicode="&#xe915;" glyph-name="push-pin" d="M628.085 949.501c-13.998 13.998-36.771 13.998-50.769 0l-151.68-151.68c-13.998-13.998-13.998-36.771 0-50.769l34.055-34.055-84.197-84.197-132.668 14.625c-6.268 0.627-12.536 1.045-18.594 1.045-45.337 0-88.167-17.759-120.133-49.724l-43.457-43.457c-13.998-13.998-13.998-36.771 0-50.769l226.685-226.685-276.618-276.618c-13.998-13.998-13.998-36.771 0-50.769 6.895-6.895 16.087-10.446 25.28-10.446s18.386 3.552 25.28 10.446l276.827 276.827 226.685-226.685c6.895-6.895 16.087-10.446 25.28-10.446s18.386 3.552 25.28 10.446l43.457 43.457c36.771 36.771 54.53 87.331 48.68 138.727l-14.625 132.668 84.197 84.197 33.846-33.846c13.998-13.998 36.771-13.998 50.769 0l151.68 151.68c6.686 6.686 10.446 15.878 10.446 25.28s-3.761 18.594-10.446 25.28l-385.26 385.469zM836.593 437.632l-33.846 34.055c-13.371 13.371-37.189 13.371-50.769 0l-121.595-121.804c-7.73-7.73-11.491-18.386-10.237-29.25l16.505-149.591c3.343-29.876-6.895-59.126-28.205-80.228l-18.177-18.177-453.579 453.579 18.177 17.968c21.102 21.102 50.56 31.339 80.228 28.205l149.8-16.505c10.864-1.254 21.519 2.507 29.25 10.237l121.595 121.595c13.998 13.998 13.998 36.771 0 50.769l-34.055 34.055 100.911 100.911 334.909-334.909-100.911-100.911z" />
<glyph unicode="&#xe916;" glyph-name="search" d="M991.284 27.298l-243.714 253.474c62.663 74.491 96.997 168.216 96.997 265.788 0 227.967-185.473 413.44-413.44 413.44s-413.44-185.473-413.44-413.44 185.473-413.44 413.44-413.44c85.582 0 167.137 25.813 236.865 74.815l245.565-255.398c10.264-10.66 24.069-16.538 38.863-16.538 14.003 0 27.287 5.339 37.371 15.046 21.427 20.618 22.11 54.808 1.492 76.253zM431.128 852.146c168.504 0 305.586-137.082 305.586-305.586s-137.082-305.586-305.586-305.586-305.586 137.082-305.586 305.586 137.082 305.586 305.586 305.586z" />
<glyph unicode="&#xe917;" glyph-name="settings" d="M971.585 555.492l-71.874 12.193c-7.487 24.172-17.113 47.488-28.878 69.735l42.354 59.253c17.969 25.242 15.188 59.681-6.845 81.5l-63.746 63.746c-11.979 11.979-27.808 18.61-44.707 18.61-13.263 0-25.883-4.064-36.579-11.765l-59.467-42.354c-23.102 12.193-47.274 22.247-72.302 29.734l-11.979 71.019c-5.134 30.589-31.445 52.836-62.462 52.836h-90.057c-31.017 0-57.328-22.247-62.462-52.836l-12.407-72.73c-23.958-7.487-47.274-17.327-69.521-29.306l-58.826 42.354c-10.696 7.701-23.53 11.765-36.793 11.765-16.899 0-32.942-6.631-44.707-18.61l-63.959-63.746c-21.819-21.819-24.814-56.259-6.845-81.5l42.782-60.109c-11.765-22.461-21.177-45.777-28.45-69.949l-71.019-11.979c-30.589-5.134-52.836-31.445-52.836-62.462v-90.057c0-31.017 22.247-57.328 52.836-62.462l72.73-12.407c7.487-23.958 17.327-47.274 29.306-69.521l-42.141-58.612c-17.969-25.242-15.188-59.681 6.845-81.5l63.746-63.746c11.979-11.979 27.808-18.61 44.707-18.61 13.263 0 25.883 4.064 36.579 11.765l60.109 42.782c21.605-11.337 44.28-20.535 67.596-27.808l11.979-71.874c5.134-30.589 31.445-52.836 62.462-52.836h90.271c31.017 0 57.328 22.247 62.462 52.836l12.193 71.874c24.172 7.487 47.488 17.113 69.735 28.878l59.253-42.354c10.696-7.701 23.53-11.765 36.793-11.765v0c16.899 0 32.728 6.631 44.707 18.61l63.746 63.746c21.819 21.819 24.814 56.259 6.845 81.5l-42.354 59.467c11.765 22.461 21.605 45.777 28.878 69.735l71.874 11.979c30.589 5.134 52.836 31.445 52.836 62.462v90.057c0.428 31.017-21.819 57.328-52.408 62.462zM966.665 402.973c0-2.781-1.925-5.134-4.706-5.562l-89.843-14.974c-11.337-1.925-20.322-10.268-23.102-21.177-8.129-31.445-20.535-61.606-37.221-89.629-5.776-9.84-5.348-22.033 1.283-31.445l52.836-74.441c1.497-2.139 1.283-5.348-0.642-7.273l-63.746-63.746c-1.497-1.497-2.995-1.711-4.064-1.711-1.283 0-2.353 0.428-3.209 1.070l-74.227 52.836c-9.198 6.631-21.605 7.059-31.445 1.283-28.022-16.685-58.184-29.092-89.629-37.221-11.123-2.781-19.466-11.979-21.177-23.102l-15.188-89.843c-0.428-2.781-2.781-4.706-5.562-4.706h-90.057c-2.781 0-5.134 1.925-5.562 4.706l-14.974 89.843c-1.925 11.337-10.268 20.322-21.177 23.102-30.589 7.915-60.109 20.108-87.704 35.937-4.492 2.567-9.626 3.85-14.546 3.85-5.776 0-11.765-1.711-16.685-5.348l-74.869-53.264c-1.070-0.642-2.139-1.070-3.209-1.070-0.856 0-2.567 0.214-4.064 1.711l-63.746 63.746c-1.925 1.925-2.139 4.92-0.642 7.273l52.622 73.799c6.631 9.412 7.059 21.819 1.283 31.659-16.685 27.808-29.52 57.97-37.648 89.415-2.995 10.909-11.979 19.252-23.102 21.177l-90.484 15.402c-2.781 0.428-4.706 2.781-4.706 5.562v90.057c0 2.781 1.925 5.134 4.706 5.562l89.201 14.974c11.337 1.925 20.535 10.268 23.316 21.391 7.915 31.445 20.108 61.82 36.579 89.843 5.776 9.84 5.134 22.033-1.497 31.231l-53.264 74.869c-1.497 2.139-1.283 5.348 0.642 7.273l63.746 63.746c1.497 1.497 2.995 1.711 4.064 1.711 1.283 0 2.353-0.428 3.209-1.070l73.799-52.622c9.412-6.631 21.819-7.059 31.659-1.283 27.808 16.685 57.97 29.52 89.415 37.648 10.909 2.995 19.252 11.979 21.177 23.102l15.402 90.484c0.428 2.781 2.781 4.706 5.562 4.706h90.057c2.781 0 5.134-1.925 5.562-4.706l14.974-89.201c1.925-11.337 10.268-20.535 21.391-23.316 32.301-8.129 63.104-20.749 91.768-37.648 9.84-5.776 22.033-5.348 31.445 1.283l73.799 53.050c1.070 0.642 2.139 1.070 3.209 1.070 0.856 0 2.567-0.214 4.064-1.711l63.746-63.746c1.925-1.925 2.139-4.92 0.642-7.273l-52.836-74.227c-6.631-9.198-7.059-21.605-1.283-31.445 16.685-28.022 29.092-58.184 37.221-89.629 2.781-11.123 11.979-19.466 23.102-21.177l89.843-15.188c2.781-0.428 4.706-2.781 4.706-5.562v-90.057h-0.214zM512.104 669.078c-121.929 0-220.97-99.041-220.97-220.97s99.041-220.97 220.97-220.97 220.97 99.041 220.97 220.97-99.041 220.97-220.97 220.97zM512.104 284.894c-90.057 0-163.214 73.158-163.214 163.214s73.158 163.214 163.214 163.214 163.214-73.158 163.214-163.214-73.158-163.214-163.214-163.214z" />
<glyph unicode="&#xe918;" glyph-name="share" d="M811.375 302.14c-58.897 0-111.415-28.066-145.010-71.442l-281.302 157.13c6.591 18.924 10.206 39.336 10.206 60.385 0 21.262-3.615 41.462-10.419 60.598l281.090 156.917c33.382-43.588 86.113-71.867 145.223-71.867 100.784 0 183.070 82.073 183.070 183.070s-82.073 183.070-183.070 183.070-183.070-82.073-183.070-183.070c0-21.262 3.615-41.674 10.419-60.598l-280.877-156.917c-33.382 43.801-86.113 71.867-145.223 71.867-100.784 0-183.070-82.073-183.070-183.070s82.286-183.070 183.282-183.070c59.11 0 111.841 28.279 145.435 72.080l281.090-157.13c-6.804-19.136-10.631-39.761-10.631-61.023 0-100.784 82.073-183.070 183.070-183.070s183.070 82.073 183.070 183.070-82.286 183.070-183.282 183.070zM811.375 902.379c69.316 0 125.661-56.346 125.661-125.661s-56.346-125.661-125.661-125.661-125.661 56.346-125.661 125.661 56.558 125.661 125.661 125.661zM212.625 322.551c-69.316 0-125.661 56.346-125.661 125.661s56.346 125.661 125.661 125.661 125.661-56.346 125.661-125.661-56.558-125.661-125.661-125.661zM811.375-6.379c-69.316 0-125.661 56.346-125.661 125.661s56.346 125.661 125.661 125.661 125.661-56.346 125.661-125.661c0-69.316-56.346-125.661-125.661-125.661z" />
<glyph unicode="&#xe919;" glyph-name="shopping-bag" d="M921.091 72.505l-58.926 664.084c-1.060 13.142-12.082 23.104-25.436 23.104h-124.211c-0.212 110.433-90.085 200.306-200.518 200.306s-200.306-89.873-200.518-200.306h-124.211c-13.142 0-24.164-9.962-25.436-23.104l-58.926-664.084c0-0.848 0-1.484 0-2.332 0-73.976 68.041-134.173 151.555-134.173h515.073c83.514 0 151.555 60.198 151.555 134.173 0 0.848 0 1.484 0 2.332zM512 909.129c82.454 0 149.435-66.981 149.647-149.435h-299.294c0.212 82.454 67.193 149.435 149.647 149.435zM769.537-12.917h-515.073c-55.111 0-100.047 36.67-100.683 82.242l56.806 639.497h100.895v-89.237c0-13.99 11.446-25.436 25.436-25.436s25.436 11.446 25.436 25.436v89.237h299.294v-89.237c0-13.99 11.446-25.436 25.436-25.436s25.436 11.446 25.436 25.436v89.237h100.895l56.806-639.709c-0.636-45.36-45.572-82.030-100.683-82.030zM638.967 345.303h-101.531v101.531c0 13.99-11.446 25.436-25.436 25.436s-25.436-11.446-25.436-25.436v-101.531h-101.531c-13.99 0-25.436-11.446-25.436-25.436s11.446-25.436 25.436-25.436h101.531v-101.531c0-13.99 11.446-25.436 25.436-25.436s25.436 11.446 25.436 25.436v101.531h101.531c13.99 0 25.436 11.446 25.436 25.436s-11.446 25.436-25.436 25.436z" />
<glyph unicode="&#xe91a;" glyph-name="shopping-bag1" d="M921.091 72.505l-58.926 664.084c-1.060 13.142-12.082 23.104-25.436 23.104h-124.211c-0.212 110.433-90.085 200.306-200.518 200.306s-200.306-89.873-200.518-200.306h-124.211c-13.142 0-24.164-9.962-25.436-23.104l-58.926-664.084c0-0.848 0-1.484 0-2.332 0-73.976 68.041-134.173 151.555-134.173h515.073c83.514 0 151.555 60.198 151.555 134.173 0 0.848 0 1.484 0 2.332zM512 909.129c82.454 0 149.435-66.981 149.647-149.435h-299.294c0.212 82.454 67.193 149.435 149.647 149.435zM769.537-12.917h-515.073c-55.111 0-100.047 36.67-100.683 82.242l56.806 639.497h100.895v-89.237c0-13.99 11.446-25.436 25.436-25.436s25.436 11.446 25.436 25.436v89.237h299.294v-89.237c0-13.99 11.446-25.436 25.436-25.436s25.436 11.446 25.436 25.436v89.237h100.895l56.806-639.709c-0.636-45.36-45.572-82.030-100.683-82.030z" />
<glyph unicode="&#xe91b;" glyph-name="speaker" d="M755.242 253.908c4.601-3.137 9.621-4.81 14.85-4.81 7.948 0 15.895 3.765 20.915 10.876 39.111 55.007 59.608 120.052 59.608 188.026s-20.706 133.020-59.608 188.026c-8.157 11.503-24.261 14.222-35.765 6.065s-14.222-24.261-6.065-35.765c32.837-46.222 50.196-101.020 50.196-158.536 0-57.307-17.359-112.105-50.196-158.536-8.157-11.294-5.438-27.19 6.065-35.346zM889.725 131.137c4.601-3.137 9.621-4.81 14.85-4.81 7.948 0 15.895 3.765 20.915 10.876 64.418 90.771 98.51 198.275 98.51 310.797s-34.092 219.817-98.51 310.797c-8.157 11.503-24.261 14.222-35.765 6.065s-14.222-24.261-6.065-35.765c58.353-82.196 89.098-179.242 89.098-281.098 0-101.647-30.745-198.902-89.098-281.098-8.157-11.503-5.438-27.399 6.065-35.765zM532.706 90.562c8.993-5.229 19.242-7.948 29.699-7.948v0c15.477 0 30.118 5.856 41.203 16.523 11.712 11.294 18.196 26.353 18.196 42.667v612.183c0 32.837-26.562 59.399-59.399 59.399-10.248 0-20.497-2.719-29.699-7.948-0.627-0.418-1.255-0.627-1.673-1.046l-209.359-144.732h-168.366c-84.497 0-153.307-68.81-153.307-153.307v-116.288c0-84.497 68.81-153.307 153.307-153.307h176.732l200.575-144.732c0.627-0.627 1.464-1.046 2.092-1.464zM338.405 288h-185.098c-56.261 0-102.065 45.804-102.065 102.065v116.288c0 56.261 45.804 102.065 102.065 102.065h176.314c5.229 0 10.248 1.673 14.641 4.601l214.797 148.497c1.046 0.627 2.301 0.837 3.346 0.837 3.346 0 8.157-2.51 8.157-8.157v-612.183c0-2.301-0.837-4.183-2.301-5.856-1.464-1.464-3.765-2.301-5.647-2.301-1.046 0-2.092 0.209-3.137 0.627l-205.804 148.706c-4.601 3.137-9.83 4.81-15.268 4.81z" />
<glyph unicode="&#xe91c;" glyph-name="star" d="M1022.596 567.377c-3.363 10.298-12.19 17.654-22.909 19.336l-319.46 45.397-143.757 288.985c-4.834 9.668-14.712 15.763-25.431 15.763v0c-10.719 0-20.597-6.095-25.431-15.973l-141.866-289.826-319.46-47.499c-10.719-1.681-19.546-9.037-22.909-19.336s-0.42-21.648 7.356-29.004l231.819-224.673-53.594-318.199c-1.892-10.719 2.522-21.437 11.349-27.743 4.834-3.573 10.719-5.464 16.604-5.464 4.624 0 9.037 1.051 13.241 3.363l285.202 151.113 286.043-149.432c4.203-2.102 8.617-3.153 13.031-3.153v0c15.553 0 28.373 12.82 28.373 28.373 0 2.312-0.21 4.414-0.841 6.515l-55.275 316.308 230.348 225.934c8.197 7.566 10.929 18.915 7.566 29.214zM734.662 342.284c-6.725-6.515-9.668-15.973-7.987-25.221l48.129-275.955-248.422 129.676c-8.197 4.414-18.075 4.203-26.482 0l-247.582-131.147 46.448 276.375c1.471 9.248-1.471 18.495-8.197 25.010l-200.924 195.039 277.216 41.194c9.248 1.471 17.234 7.146 21.227 15.553l123.16 251.575 124.842-250.944c4.203-8.407 12.19-14.081 21.437-15.553l277.426-39.512-200.293-196.090z" />
<glyph unicode="&#xe91d;" glyph-name="tap" d="M1003.924 265.35c-110.314 75.776-256.633 110.524-308.545 120.99l-25.747 213.721c-0.837 47.935-40.19 86.661-88.335 86.661-47.517 0-85.823-36.632-88.126-83.73 0-0.837-0.209-1.675-0.209-2.512v-126.642l-2.093-308.127-32.445 24.91c-39.772 34.748-133.549 77.45-208.697-5.024-8.164-9.001-9.001-22.188-1.884-32.027 2.093-2.931 52.75-73.892 133.34-150.295 10.257-9.838 26.584-9.21 36.213 1.047s9.21 26.584-1.047 36.213c-53.378 50.657-93.568 99.429-113.245 124.758 55.471 41.446 115.129-7.326 122.037-13.606 0.419-0.419 0.837-0.628 1.256-1.047l74.101-57.146c7.745-5.861 18.211-7.117 26.794-2.721 8.792 4.187 14.234 13.187 14.443 22.816l2.512 360.039v125.386c0 0.209 0 0.419 0 0.837 0.628 20.095 16.746 35.795 37.051 35.795s37.051-16.537 37.051-37.051c0-1.047 0-2.093 0.209-3.14l28.050-233.816c1.256-11.304 10.048-20.305 21.142-22.188 1.675-0.209 174.577-29.934 298.079-110.314 4.605-29.724 15.071-118.897-5.652-200.952-3.559-13.815 4.814-27.631 18.63-31.189 2.093-0.628 4.187-0.837 6.28-0.837 11.513 0 21.979 7.745 24.91 19.467 28.050 111.361 5.442 228.792 4.605 233.607-1.465 6.489-5.233 12.35-10.676 16.118zM218.117 878.882c-120.153 0-218.117-97.755-218.117-218.117 0-120.153 97.755-218.117 218.117-218.117 108.43 0 199.068 77.66 215.605 184.625 1.675 11.094 2.512 22.398 2.512 33.492 0 14.234-11.513 25.747-25.747 25.747s-25.747-11.513-25.747-25.747c0-8.582-0.628-17.165-1.884-25.747-12.35-80.381-83.311-141.085-164.739-141.085-91.894 0-166.832 74.729-166.832 166.832s74.729 166.832 166.832 166.832c49.401 0 96.080-21.979 127.479-59.448l-122.455-121.618-69.077 69.496c-10.048 10.048-26.166 10.048-36.213 0.209-10.048-10.048-10.048-26.166-0.209-36.213l87.079-87.707c4.814-4.814 11.304-7.536 18.211-7.536v0c6.698 0 13.187 2.721 18.002 7.536l265.215 263.75c10.048 10.048 10.048 26.166 0.209 36.213-10.048 10.048-26.166 10.048-36.213 0.209l-88.126-87.707c-41.028 46.68-100.685 74.101-163.902 74.101z" />
<glyph unicode="&#xe91e;" glyph-name="telephone1" d="M545.727-32.672c3.547-0.209 7.095-0.417 10.434-0.417 38.604 0 70.948 13.981 96.197 41.525 0.209 0.209 0.626 0.626 0.835 0.835 8.347 10.016 17.946 19.198 28.171 29.005 7.095 6.677 14.19 13.772 21.076 21.076 34.222 35.683 34.013 82.633-0.417 117.064l-89.102 89.102c-16.485 17.32-36.517 26.292-57.593 26.292-20.867 0-41.108-8.973-58.010-26.084l-49.246-49.246c-3.339 1.878-6.886 3.547-10.225 5.217-5.634 2.921-11.060 5.634-15.65 8.555-47.786 30.257-91.189 69.905-132.506 120.82-19.615 24.623-32.97 45.699-42.36 65.94 12.52 11.686 24.414 23.58 35.891 35.265 4.591 4.591 9.181 9.181 13.772 13.772 17.528 17.528 26.71 37.769 26.71 58.636s-9.181 41.108-26.71 58.636l-44.238 44.238c-5.008 5.008-10.016 10.225-15.024 15.233-9.808 10.225-20.241 20.658-30.257 30.049-16.485 16.485-36.309 25.249-57.176 25.249-20.658 0-40.691-8.555-58.010-25.249l-55.506-55.506c-21.284-21.493-33.596-47.577-36.1-77.625-3.965-47.994 10.225-92.65 21.076-122.072 26.292-71.157 65.94-137.305 124.576-208.044 71.365-85.138 157.337-152.538 255.413-199.906 37.352-17.737 87.642-38.813 143.983-42.36zM185.354 242.564c-54.88 65.94-91.606 127.289-116.021 193.020-14.816 39.856-20.45 70.739-17.946 99.953 1.461 17.946 8.555 32.97 21.91 46.325l54.672 54.672c5.008 4.799 12.938 10.642 22.328 10.642 8.973 0 16.485-5.634 21.702-10.851 9.808-9.181 19.198-18.78 29.214-29.005 5.008-5.217 10.225-10.434 15.442-15.65l44.238-44.238c5.425-5.425 11.686-13.564 11.686-22.536s-6.469-17.111-11.686-22.536c-4.799-4.799-9.39-9.39-13.981-14.19-13.564-13.772-26.501-26.918-40.482-39.439-0.417-0.417-0.626-0.626-1.043-1.043-15.233-15.233-12.52-30.466-9.181-40.482 0.209-0.626 0.417-1.043 0.626-1.669 11.686-28.171 27.962-54.88 53.211-86.598 45.073-55.506 92.441-98.701 144.817-131.88 6.677-4.382 13.564-7.721 20.241-11.060 5.634-2.921 11.060-5.634 15.65-8.555 0.835-0.417 1.461-0.835 2.295-1.252 16.068-7.929 31.927-5.217 44.864 7.929l55.506 55.506c5.008 5.008 12.938 11.060 21.91 11.060 8.764 0 16.068-5.843 21.076-11.060l89.52-89.52c14.816-14.816 14.816-29.631-0.626-45.699-6.051-6.469-12.729-12.729-19.615-19.406-10.434-10.225-21.493-20.658-31.509-32.553-15.65-16.694-34.013-24.414-58.219-24.414-2.504 0-4.799 0-7.303 0.209-47.577 3.13-92.024 21.702-125.202 37.561-91.189 44.238-171.318 107.048-238.093 186.76zM616.467 369.436c27.962-6.886 56.758-10.434 85.972-10.434 177.37 0 321.561 127.915 321.561 285.044s-144.191 285.044-321.561 285.044-321.561-127.706-321.561-285.044c0-60.306 21.702-119.151 61.349-167.562-7.512-14.398-17.946-26.084-30.883-34.431-11.894-7.929-17.528-21.91-14.398-35.683s14.19-23.788 28.171-25.875c27.336-3.756 80.338-5.843 129.793 23.997 12.103 7.303 16.068 22.954 8.764 35.057s-22.954 16.068-35.057 8.764c-18.363-11.060-37.978-16.068-55.298-17.946 9.599 12.103 17.111 26.084 22.954 41.734 3.339 8.973 1.252 19.198-5.217 26.292-38.604 41.943-59.054 92.232-59.054 145.861 0 128.958 121.238 233.92 270.437 233.92s270.437-104.961 270.437-233.92-121.238-233.92-270.437-233.92c-25.040 0-49.872 2.921-73.869 8.764-13.564 3.339-27.544-5.008-30.883-18.78s5.008-27.544 18.78-30.883zM729.566 644.046c0-14.982-12.145-27.127-27.127-27.127s-27.127 12.145-27.127 27.127c0 14.982 12.145 27.127 27.127 27.127s27.127-12.145 27.127-27.127zM826.18 644.046c0-14.982-12.145-27.127-27.127-27.127s-27.127 12.145-27.127 27.127c0 14.982 12.145 27.127 27.127 27.127s27.127-12.145 27.127-27.127zM632.952 644.046c0-14.982-12.145-27.127-27.127-27.127s-27.127 12.145-27.127 27.127c0 14.982 12.145 27.127 27.127 27.127s27.127-12.145 27.127-27.127z" />
<glyph unicode="&#xe91f;" glyph-name="up-arrow" d="M512-64c282.31 0 512 229.69 512 512s-229.69 512-512 512-512-229.69-512-512 229.69-512 512-512zM512 908.842c254.121 0 460.842-206.721 460.842-460.842s-206.721-460.842-460.842-460.842-460.842 206.721-460.842 460.842 206.721 460.842 460.842 460.842zM386.297 508.555l100.228 100.228v-382.956c0-14.199 11.485-25.684 25.684-25.684s25.684 11.485 25.684 25.684v382.747l100.228-100.228c5.011-5.011 11.485-7.517 18.166-7.517s13.155 2.506 18.166 7.517c10.023 10.023 10.023 26.101 0 36.124l-143.869 143.869c-10.023 10.023-26.101 10.023-36.124 0l-143.869-143.869c-10.023-10.023-10.023-26.101 0-36.124 9.396-9.814 25.684-9.814 35.706 0.209z" />
<glyph unicode="&#xe920;" glyph-name="user" d="M912.281-37.95v143.593c0 177.691-116.484 328.697-276.808 380.797 77.091 43.417 129.403 126.014 129.403 220.684 0 139.357-113.519 252.876-252.876 252.876s-252.876-113.519-252.876-252.876c0-94.67 52.312-177.267 129.403-220.684-160.536-52.1-276.808-203.106-276.808-380.797v-143.593c0-14.402 11.648-26.050 26.050-26.050h748.886c13.978 0.212 25.626 11.648 25.626 26.050zM310.8 707.124c0 110.766 90.222 200.988 200.988 200.988s200.988-90.222 200.988-200.988-90.222-200.988-200.988-200.988-200.988 90.222-200.988 200.988zM860.393-11.9h-697.21v117.755c0 192.093 156.3 348.605 348.605 348.605s348.605-156.3 348.605-348.605v-117.755z" />
<glyph unicode="&#xe921;" glyph-name="verify-sign" d="M996.553 823.546c-36.629 36.628-95.977 36.628-132.605 0l-557.704-557.702-148.293 127.385c-36.127 36.129-94.696 36.129-130.855 0-36.127-36.127-36.127-94.726 0-130.853l221.55-190.297c36.127-36.129 94.696-36.129 130.855 0 3.626 3.624 6.658 7.657 9.564 11.687 0.53 0.5 1.124 0.845 1.656 1.345l605.833 605.863c36.594 36.596 36.594 95.976-0.002 132.572z" />
<glyph unicode="&#xe922;" glyph-name="vk" d="M881.297 369.286c33.967-33.163 69.819-64.365 100.284-100.873 13.458-16.223 26.199-32.965 35.946-51.792 13.811-26.764 1.302-56.216-22.696-57.814l-149.179 0.067c-38.476-3.193-69.169 12.297-94.978 38.604-20.654 21.038-39.781 43.428-59.641 65.176-8.142 8.889-16.664 17.253-26.845 23.864-20.365 13.219-38.042 9.171-49.679-12.068-11.853-21.603-14.541-45.524-15.705-69.6-1.598-35.128-12.216-44.363-47.502-45.972-75.41-3.556-146.979 7.853-213.463 45.894-58.615 33.537-104.069 80.881-143.631 134.48-77.029 104.368-136.017 219.052-189.034 336.948-11.934 26.562-3.206 40.821 26.101 41.325 48.667 0.945 97.326 0.878 146.050 0.067 19.78-0.289 32.874-11.634 40.511-30.32 26.33-64.742 58.548-126.338 98.988-183.432 10.77-15.201 21.751-30.401 37.389-41.1 17.3-11.846 30.472-7.92 38.61 11.352 5.164 12.22 7.425 25.381 8.589 38.469 3.856 45.026 4.364 89.975-2.399 134.843-4.152 28.002-19.924 46.13-47.866 51.429-14.258 2.702-12.136 8.007-5.232 16.146 11.991 14.036 23.268 22.774 45.75 22.774h168.595c26.542-5.238 32.437-17.162 36.070-43.869l0.145-187.275c-0.289-10.339 5.164-41.019 23.787-47.862 14.904-4.872 24.729 7.052 33.671 16.503 40.367 42.843 69.176 93.474 94.914 145.902 11.422 23.053 21.243 46.994 30.761 70.916 7.052 17.751 18.117 26.485 38.112 26.098l162.263-0.145c4.811 0 9.679-0.071 14.339-0.868 27.343-4.66 34.835-16.422 26.391-43.122-13.306-41.891-39.196-76.8-64.51-111.871-27.060-37.443-56.001-73.604-82.836-111.269-24.655-34.395-22.696-51.732 7.93-81.604v0z" />
<glyph unicode="&#xe923;" glyph-name="wallet" d="M876.308 871.384h-728.616c-81.438 0-147.692-66.254-147.692-147.692v-551.384c0-81.438 66.254-147.692 147.692-147.692h728.616c81.438 0 147.692 66.254 147.692 147.692v551.384c0 81.438-66.254 147.692-147.692 147.692zM964.924 359.384h-216.616c-48.862 0-88.616 39.752-88.616 88.616s39.752 88.616 88.616 88.616h216.616v-177.232zM964.924 595.692h-216.616c-81.438 0-147.692-66.254-147.692-147.692s66.254-147.692 147.692-147.692h216.616v-128c0-48.862-39.752-88.616-88.616-88.616h-728.616c-48.862 0-88.616 39.752-88.616 88.616v551.384c0 48.862 39.752 88.616 88.616 88.616h728.616c48.862 0 88.616-39.752 88.616-88.616v-128zM787.692 477.538h-39.384c-16.314 0-29.538-13.226-29.538-29.538 0-16.314 13.226-29.538 29.538-29.538h39.384c16.314 0 29.538 13.226 29.538 29.538 0 16.314-13.224 29.538-29.538 29.538z" />
<glyph unicode="&#xe924;" glyph-name="star-color" d="M1022.739 567.383c-3.363 10.299-12.19 17.655-22.91 19.337l-319.475 45.399-143.764 288.998c-4.834 9.668-14.713 15.764-25.432 15.764v0c-10.719 0-20.598-6.095-25.432-15.974l-141.872-289.839-319.475-47.501c-10.719-1.681-19.547-9.038-22.91-19.337s-0.42-21.649 7.356-29.005l231.829-224.683-53.596-318.213c-1.892-10.719 2.522-21.438 11.35-27.744 4.834-3.573 10.719-5.465 16.604-5.465 4.624 0 9.038 1.051 13.241 3.363l285.215 151.12 286.056-149.438c4.204-2.102 8.617-3.153 13.031-3.153v0c15.553 0 28.374 12.821 28.374 28.374 0 2.312-0.21 4.414-0.841 6.516l-55.278 316.322 230.358 225.944c8.197 7.567 10.929 18.916 7.567 29.215zM514.732 151.225c-6.726-6.516-8.407 2.732-6.726-6.516l266.719-103.619-248.433 129.681c-8.197 4.414-18.076 4.204-26.483 0l-247.593-131.153 262.516 111.606c1.471 9.248 0 0-6.726 6.516v0 0c9.248 1.471 0 0 3.993 8.407l-0.631 678.253-3.153-686.66c3.993-8.407-2.732-5.044 6.516-6.516v0 0z" />
<glyph unicode="&#xe925;" glyph-name="heart-full" d="M85.403 404.461l395.617-395.617c8.373-8.373 19.676-12.978 31.398-12.978s23.025 4.605 31.398 12.978l394.989 394.989c54.842 54.842 85.194 127.895 85.194 205.344 0 77.658-30.142 150.711-84.984 205.554s-127.686 84.984-205.344 84.984-150.502-30.352-205.554-85.194l-15.908-15.908-16.327 16.327c-55.052 55.052-128.105 85.194-205.763 85.194-77.449 0-150.293-30.142-205.135-84.984s-84.984-127.895-84.984-205.554c0.209-77.449 30.561-150.293 85.403-205.135z" />
<glyph unicode="&#xe926;" glyph-name="shopping-bag-check" d="M921.091 72.505l-58.926 664.084c-1.060 13.142-12.082 23.104-25.436 23.104h-124.211c-0.212 110.433-90.085 200.306-200.518 200.306s-200.306-89.873-200.518-200.306h-124.211c-13.142 0-24.164-9.962-25.436-23.104l-58.926-664.084c0-0.848 0-1.484 0-2.332 0-73.976 68.041-134.173 151.555-134.173h515.073c83.514 0 151.555 60.198 151.555 134.173 0 0.848 0 1.484 0 2.332zM512 909.129c82.454 0 149.435-66.981 149.647-149.435h-299.294c0.212 82.454 67.193 149.435 149.647 149.435zM769.537-12.917h-515.073c-55.111 0-100.047 36.67-100.683 82.242l56.806 639.497h100.895v-89.237c0-13.99 11.446-25.436 25.436-25.436s25.436 11.446 25.436 25.436v89.237h299.294v-89.237c0-13.99 11.446-25.436 25.436-25.436s25.436 11.446 25.436 25.436v89.237h100.895l56.806-639.709c-0.636-45.36-45.572-82.030-100.683-82.030zM617.77 430.513l-150.071-150.071-61.258 61.258c-9.962 9.962-26.072 9.962-36.034 0s-9.962-26.072 0-36.034l79.275-79.275c4.875-4.875 11.446-7.419 18.017-7.419s12.93 2.544 18.017 7.419l168.088 168.088c9.962 9.962 9.962 26.072 0 36.034-9.962 9.75-26.072 9.75-36.034 0z" />
<glyph unicode="&#xe927;" glyph-name="notification" d="M888.64 246.96l-46.64 31.094v269.946c0 171.85-132.046 313.414-300 328.622v53.378c0 16.568-13.432 30-30 30s-30-13.432-30-30v-53.378c-167.954-15.208-300-156.772-300-328.622v-269.946l-46.64-31.094c-8.348-5.564-13.36-14.928-13.36-24.96v-120c0-16.568 13.432-30 30-30h197.75c14.082-77.254 81.452-136 162.25-136 80.796 0 148.168 58.746 162.25 136h197.75c16.568 0 30 13.432 30 30v120c0 10.032-5.014 19.398-13.36 24.96zM512-4c-47.578 0-87.87 32.118-100.718 76h201.438c-12.85-43.882-53.142-76-100.72-76zM842 132c-27.842 0-627.228 0-660 0v73.946l46.64 31.094c8.346 5.562 13.36 14.93 13.36 24.96v286c0 148.878 121.122 270 270 270s270-121.122 270-270v-286c0-10.032 5.014-19.398 13.36-24.96l46.64-31.094v-73.946z" />
</font>
</defs>
</svg>
